<?xml version="1.0" standalone="no"?>
<!DOCTYPE svg PUBLIC "-//W3C//DTD SVG 20010904//EN"
 "http://www.w3.org/TR/2001/REC-SVG-20010904/DTD/svg10.dtd">
<svg version="1.0" xmlns="http://www.w3.org/2000/svg"
 width="300.000000pt" height="300.000000pt" viewBox="0 0 300.000000 300.000000"
 preserveAspectRatio="xMidYMid meet">
<metadata>
Created by potrace 1.10, written by Peter Selinger 2001-2011
</metadata>
<g transform="translate(0.000000,300.000000) scale(0.100000,-0.100000)"
fill="#0aa6ff" stroke="none">
<path d="M780 2360 c0 -3 162 -167 360 -365 l361 -360 359 365 c198 201 360
365 360 365 0 0 -324 0 -720 0 -396 0 -720 -2 -720 -5z m1263 -143 c-65 -65
-215 -215 -333 -333 l-214 -215 -328 331 c-180 182 -328 332 -328 334 0 1 297
3 661 3 l660 -1 -118 -119z"/>
<path d="M688 1613 c9 -3 12 -38 12 -124 0 -78 -4 -118 -10 -114 -5 3 -10 3
-10 -2 0 -4 23 -8 50 -8 28 0 50 3 50 8 0 4 -5 7 -11 7 -7 0 -9 40 -7 120 l3
120 -45 -1 c-25 0 -39 -3 -32 -6z m49 -155 c-3 -7 -5 -2 -5 12 0 14 2 19 5 13
2 -7 2 -19 0 -25z"/>
<path d="M1278 1613 c7 -3 12 -23 12 -47 0 -42 -1 -42 -30 -38 -47 7 -70 -20
-70 -80 0 -35 6 -54 20 -68 21 -21 50 -26 66 -10 5 5 24 6 49 0 22 -5 40 -8
40 -7 0 1 -1 59 -3 130 l-3 127 -47 -1 c-26 0 -41 -3 -34 -6z m7 -164 c0 -50
-3 -64 -15 -64 -11 0 -16 14 -18 54 -4 61 3 84 21 78 8 -2 12 -25 12 -68z"/>
<path d="M2353 1613 c15 -4 17 -18 17 -119 0 -69 -4 -114 -10 -114 -5 0 -10
-3 -10 -7 0 -5 47 -8 105 -8 67 0 101 3 95 9 -6 6 -10 63 -10 128 l0 118 -47
-1 c-27 0 -42 -3 -35 -6 9 -3 12 -38 12 -123 0 -113 -1 -119 -20 -117 -19 1
-20 8 -20 124 l0 123 -47 -1 c-27 -1 -40 -3 -30 -6z"/>
<path d="M260 1598 c0 -5 5 -8 10 -8 6 0 10 -42 10 -105 0 -63 -4 -105 -10
-105 -5 0 -10 -3 -10 -7 0 -5 25 -8 55 -9 49 0 71 8 46 18 -9 3 -15 76 -12
170 1 41 3 46 21 41 16 -4 20 -14 20 -49 0 -32 -4 -44 -15 -44 -8 0 -15 -4
-15 -9 0 -5 7 -11 15 -15 10 -4 15 -20 15 -50 0 -46 16 -66 54 -66 17 0 46 27
46 43 0 6 -7 2 -15 -9 -14 -18 -14 -17 -15 14 0 41 -16 72 -35 72 -24 0 -17
18 8 22 17 2 23 10 25 40 3 29 -1 39 -18 48 -24 13 -180 20 -180 8z m173 -69
c-9 -9 -12 -7 -10 9 1 14 5 18 11 12 7 -7 6 -14 -1 -21z m-3 -100 c0 -11 -4
-17 -10 -14 -5 3 -10 15 -10 26 0 11 5 17 10 14 6 -3 10 -15 10 -26z"/>
<path d="M1630 1597 c0 -5 5 -5 10 -2 6 4 10 -35 10 -110 0 -75 -4 -114 -10
-110 -5 3 -10 3 -10 -2 0 -10 113 -9 158 1 60 14 64 95 5 111 -27 7 -27 7 -6
16 49 18 50 79 1 95 -32 10 -158 11 -158 1z m130 -49 c0 -17 -7 -40 -17 -50
-15 -17 -15 -18 0 -18 36 0 33 -93 -3 -103 -19 -5 -20 0 -20 109 0 112 1 114
20 104 13 -7 20 -21 20 -42z m-73 -40 c-2 -13 -4 -3 -4 22 0 25 2 35 4 23 2
-13 2 -33 0 -45z m0 -80 c-2 -13 -4 -5 -4 17 -1 22 1 32 4 23 2 -10 2 -28 0
-40z"/>
<path d="M2264 1595 c-9 -23 3 -45 25 -45 22 0 41 27 34 48 -6 17 -52 15 -59
-3z"/>
<path d="M533 1515 c-25 -17 -36 -57 -28 -96 13 -59 114 -77 150 -26 22 31 19
93 -5 117 -24 24 -86 27 -117 5z m72 -70 c0 -56 -3 -70 -15 -70 -12 0 -16 16
-18 73 -3 66 -1 73 15 70 15 -3 18 -14 18 -73z"/>
<path d="M816 1517 c-26 -19 -17 -52 14 -52 21 0 25 4 23 28 -1 18 3 27 13 27
9 0 14 -11 14 -35 0 -31 -3 -35 -35 -41 -42 -7 -59 -26 -50 -53 6 -21 50 -39
63 -27 3 4 5 23 3 42 -1 19 2 34 8 34 6 0 11 -14 11 -30 0 -55 83 -68 86 -14
1 16 0 16 -3 2 -10 -41 -23 -13 -23 47 0 53 -3 66 -19 75 -27 14 -84 13 -105
-3z"/>
<path d="M978 1521 c10 -6 13 -28 10 -82 l-3 -74 40 0 40 0 0 70 c0 58 3 70
18 73 15 3 17 -5 17 -60 0 -35 -4 -68 -9 -73 -6 -6 8 -10 40 -10 27 0 49 4 49
8 0 5 -4 5 -10 2 -6 -4 -10 17 -10 55 0 34 -5 70 -10 81 -12 22 -59 26 -78 7
-9 -9 -12 -9 -12 0 0 8 -17 12 -47 12 -30 0 -43 -3 -35 -9z"/>
<path d="M1418 1520 c-9 -6 -21 -25 -28 -44 -28 -86 67 -152 136 -93 36 31 38
101 4 129 -24 19 -84 24 -112 8z m67 -76 c0 -55 -3 -69 -15 -69 -11 0 -16 15
-18 59 -3 66 2 90 21 83 8 -2 12 -26 12 -73z"/>
<path d="M1883 1515 c-25 -17 -36 -57 -28 -96 13 -59 114 -77 150 -26 22 31
19 93 -5 117 -24 24 -86 27 -117 5z m72 -70 c0 -56 -3 -70 -15 -70 -12 0 -16
16 -18 73 -3 66 -1 73 15 70 15 -3 18 -14 18 -73z"/>
<path d="M2038 1523 c8 -3 12 -29 12 -79 0 -48 -4 -73 -10 -69 -5 3 -10 3 -10
-2 0 -4 23 -8 50 -8 28 0 50 3 50 8 0 4 -5 7 -11 7 -7 0 -10 21 -9 58 4 95 5
92 -42 91 -24 0 -37 -3 -30 -6z"/>
<path d="M2127 1523 c-12 -12 -7 -21 10 -19 14 1 16 -9 16 -61 -1 -34 -3 -65
-6 -70 -3 -4 39 -8 94 -8 54 0 99 3 99 8 0 4 -4 7 -10 7 -6 0 -10 32 -10 75
l0 75 -42 -1 c-24 0 -37 -3 -30 -6 8 -3 12 -28 12 -74 0 -38 -2 -69 -4 -69 -2
0 -11 -3 -20 -6 -14 -5 -16 4 -16 59 0 46 -5 70 -16 81 -15 16 -65 22 -77 9z"/>
<path d="M2586 1514 c-18 -18 -19 -24 -7 -42 15 -24 46 -9 44 21 -1 18 3 27
13 27 9 0 14 -11 14 -35 0 -31 -3 -35 -35 -41 -46 -8 -64 -38 -39 -65 18 -20
59 -26 69 -9 3 6 1 10 -4 10 -14 0 -14 47 -1 55 6 4 10 -6 10 -24 0 -31 22
-51 54 -51 18 0 52 47 42 57 -4 4 -9 -3 -13 -15 -10 -39 -23 -12 -23 47 0 31
-5 62 -12 69 -18 18 -94 15 -112 -4z"/>
<path d="M1142 962 l363 -362 362 362 c200 200 363 363 363 363 0 0 -326 0
-725 0 l-725 0 362 -363z m812 338 l219 0 -329 -330 c-180 -181 -333 -330
-339 -330 -11 0 -655 641 -655 653 0 6 595 14 790 10 52 -1 194 -2 314 -3z"/>
</g>
</svg>
